<?xml version="1.0" encoding="UTF-8" standalone="no"?>
<svg
   xmlns:dc="http://purl.org/dc/elements/1.1/"
   xmlns:cc="http://creativecommons.org/ns#"
   xmlns:rdf="http://www.w3.org/1999/02/22-rdf-syntax-ns#"
   xmlns:svg="http://www.w3.org/2000/svg"
   xmlns="http://www.w3.org/2000/svg"
   xmlns:sodipodi="http://sodipodi.sourceforge.net/DTD/sodipodi-0.dtd"
   xmlns:inkscape="http://www.inkscape.org/namespaces/inkscape"
   version="1.1"
   id="svg2"
   xml:space="preserve"
   width="1187.2587"
   height="793.70801"
   viewBox="0 0 1187.2587 793.70801"
   sodipodi:docname="pepsi-seeklogo.com.ai"><metadata
     id="metadata8"><rdf:RDF><cc:Work
         rdf:about=""><dc:format>image/svg+xml</dc:format><dc:type
           rdf:resource="http://purl.org/dc/dcmitype/StillImage" /></cc:Work></rdf:RDF></metadata><defs
     id="defs6"><clipPath
       clipPathUnits="userSpaceOnUse"
       id="clipPath18"><path
         d="M 0,595.281 H 890.444 V 0 H 0 Z"
         id="path16" /></clipPath></defs><sodipodi:namedview
     pagecolor="#ffffff"
     bordercolor="#666666"
     borderopacity="1"
     objecttolerance="10"
     gridtolerance="10"
     guidetolerance="10"
     inkscape:pageopacity="0"
     inkscape:pageshadow="2"
     inkscape:window-width="640"
     inkscape:window-height="480"
     id="namedview4" /><g
     id="g10"
     inkscape:groupmode="layer"
     inkscape:label="pepsi-seeklogo.com"
     transform="matrix(1.3333333,0,0,-1.3333333,0,793.708)"><g
       id="g12"><g
         id="g14"
         clip-path="url(#clipPath18)"><g
           id="g20"
           transform="translate(542.2236,306.5215)"><path
             d="m 0,0 c -2.96,-0.888 -6.809,-1.776 -11.545,-2.368 -2.368,-0.296 -4.736,-0.592 -7.992,-0.592 -5.032,0 -10.657,0.296 -15.69,0.888 h -0.295 c -5.033,0.296 -9.473,0.592 -13.914,0.592 -3.255,0 -6.216,-0.296 -8.88,-0.592 -8.288,-0.888 -14.801,-3.552 -14.801,-3.552 v 0.592 c 1.479,16.577 15.689,31.082 32.562,33.154 1.481,0.296 3.256,0.296 4.737,0.296 15.985,0 31.378,-12.137 36.114,-28.122 L 0.296,0 Z m 19.538,-7.104 v 0 c 0,1.183 -0.296,2.959 -0.592,5.032 -0.297,3.257 -1.184,6.808 -2.072,10.064 -7.697,24.275 -28.419,39.964 -52.692,39.964 -2.369,0 -5.033,-0.296 -7.401,-0.593 -31.083,-4.143 -52.396,-32.265 -48.252,-64.236 3.849,-29.011 26.939,-48.845 55.357,-48.845 2.368,0 5.032,0.297 7.4,0.593 15.098,1.775 28.418,8.288 38.484,20.722 0.591,0.591 0.887,1.479 0.591,2.368 0,0.592 -0.591,1.479 -1.184,2.072 -1.776,1.184 -7.697,4.144 -10.952,5.624 -0.889,0.592 -1.777,0.888 -2.073,1.185 -0.888,0.591 -1.776,0.591 -2.368,0.591 -0.888,0 -1.48,-0.295 -2.368,-1.184 -6.513,-7.4 -14.506,-11.249 -22.794,-12.433 -1.776,-0.296 -3.257,-0.296 -4.736,-0.296 -15.098,0 -30.49,10.065 -34.931,23.978 v 0.296 l 0.296,0.296 c 0.888,0.297 7.992,3.552 18.353,3.552 1.184,0 2.665,0 3.848,-0.295 2.961,-0.296 5.921,-0.592 9.177,-0.889 5.921,-0.888 11.841,-1.48 19.242,-1.48 4.441,0 8.584,0.296 13.025,0.888 17.169,3.257 24.274,8.289 24.274,8.289 2.664,1.184 2.368,2.368 2.368,4.737"
             style="fill:#005992;fill-opacity:1;fill-rule:nonzero;stroke:none"
             id="path22" /></g><g
           id="g24"
           transform="translate(832.9189,347.9648)"><path
             d="m 0,0 c 0,1.48 -1.185,2.664 -2.664,2.664 h -14.21 c -1.48,0 -2.664,-1.184 -2.664,-2.664 v -101.832 c 0,-1.481 1.184,-2.664 2.664,-2.664 h 14.21 c 1.479,0 2.664,1.183 2.664,2.664 z"
             style="fill:#005992;fill-opacity:1;fill-rule:nonzero;stroke:none"
             id="path26" /></g><g
           id="g28"
           transform="translate(823.1494,387.04)"><path
             d="m 0,0 c -7.104,0 -13.024,-5.921 -13.024,-13.025 0,-7.105 5.92,-13.025 13.024,-13.025 7.104,0 13.025,5.92 13.025,13.025 C 12.729,-5.921 7.105,0 0,0"
             style="fill:#005992;fill-opacity:1;fill-rule:nonzero;stroke:none"
             id="path30" /></g><g
           id="g32"
           transform="translate(633.3994,334.9395)"><path
             d="m 0,0 c 20.425,0 36.114,-16.577 36.114,-38.187 0,-21.61 -15.096,-37.595 -35.226,-37.595 -10.065,0 -19.537,3.553 -26.346,10.065 -7.105,6.809 -10.953,16.281 -10.953,26.939 C -36.115,-17.169 -19.834,0 0,0 m -0.593,-94.136 h 2.665 c 14.801,0 28.418,5.625 38.483,15.986 10.361,10.361 15.985,24.866 15.985,40.259 0,32.267 -24.866,57.429 -56.54,57.429 -25.754,0 -47.364,-16.874 -54.173,-42.035 -1.183,-4.145 -2.368,-15.098 -2.368,-26.051 v -79.926 c 0,-1.48 1.185,-2.664 2.664,-2.664 h 14.21 c 1.479,0 2.664,1.184 2.664,2.664 v 50.324 l 0.888,-0.592 c 7.104,-7.105 20.13,-14.801 35.522,-15.394"
             style="fill:#005992;fill-opacity:1;fill-rule:nonzero;stroke:none"
             id="path34" /></g><g
           id="g36"
           transform="translate(377.9316,334.9395)"><path
             d="m 0,0 c 20.426,0 36.114,-16.577 36.114,-38.187 0,-21.61 -15.096,-37.595 -35.226,-37.595 -10.065,0 -19.537,3.553 -26.346,10.065 -7.105,6.809 -10.953,16.281 -10.953,26.939 C -36.115,-17.169 -19.834,0 0,0 m -0.592,-94.136 h 2.664 c 14.801,0 28.418,5.625 38.483,15.986 10.361,10.361 15.985,24.866 15.985,40.259 0,32.267 -24.866,57.429 -56.54,57.429 -25.754,0 -47.364,-16.874 -54.173,-42.035 -1.183,-4.145 -2.368,-15.098 -2.368,-26.051 v -79.926 c 0,-1.48 1.185,-2.664 2.665,-2.664 h 14.209 c 1.479,0 2.664,1.184 2.664,2.664 v 50.324 l 0.592,-0.592 c 7.4,-7.105 20.426,-14.801 35.819,-15.394"
             style="fill:#005992;fill-opacity:1;fill-rule:nonzero;stroke:none"
             id="path38" /></g><g
           id="g40"
           transform="translate(703.8525,258.5654)"><path
             d="m 0,0 c 12.433,-11.249 25.754,-17.762 43.516,-17.762 h 0.591 c 30.195,0.297 43.812,16.874 43.812,33.156 0,22.498 -21.314,28.713 -27.826,30.194 -2.072,0.296 -4.145,0.888 -6.513,1.184 -5.328,0.888 -10.657,2.072 -15.689,3.552 -3.552,0.888 -14.801,4.737 -14.801,13.322 0,9.472 10.36,14.504 20.13,14.504 8.288,0 15.096,-1.48 23.681,-8.288 0.592,-0.592 1.777,-1.184 2.664,-1.184 0.888,0 1.777,0.296 2.664,0.887 2.369,1.777 6.809,5.625 9.769,8.585 0.593,0.592 0.889,1.481 0.889,2.369 0,1.184 -0.889,2.368 -1.481,2.664 C 69.861,92.359 58.612,96.208 42.627,96.208 19.833,96.208 2.664,81.703 2.664,62.165 2.664,46.772 15.394,35.819 38.187,31.379 L 52.396,28.714 C 61.869,26.938 67.197,21.906 66.901,15.098 66.605,8.289 58.316,1.185 44.699,1.185 c -11.249,0 -21.017,4.44 -29.305,11.84 -0.593,0.592 -1.185,1.184 -2.369,1.184 -0.592,0 -1.48,-0.296 -2.072,-0.888 C 10.064,12.729 0.592,5.032 -0.592,4.145 -1.185,3.553 -1.185,3.257 -1.185,2.664 -1.184,1.48 -0.592,0.592 0,0"
             style="fill:#005992;fill-opacity:1;fill-rule:nonzero;stroke:none"
             id="path42" /></g><g
           id="g44"
           transform="translate(853.6406,256.1973)"><path
             d="M 0,0 C 0.888,0 1.479,-0.888 1.479,-1.48 1.479,-2.368 0.888,-2.96 0,-2.96 H -2.072 V 0 Z m 1.479,-5.328 c 1.777,0.592 2.665,2.072 2.665,3.552 0,2.072 -1.184,3.848 -3.848,3.848 H -4.44 V -9.769 h 2.368 v 4.145 h 0.887 l 2.96,-4.145 h 2.961 z m -2.072,-7.993 c 5.329,0 9.77,4.44 9.77,9.769 0,5.328 -4.145,9.769 -9.77,9.769 -5.328,0 -9.768,-4.441 -9.768,-9.769 0.296,-5.329 4.44,-9.769 9.768,-9.769 m 0,21.61 c 6.513,0 11.841,-5.329 11.841,-11.841 0,-6.512 -5.328,-11.842 -11.841,-11.842 -6.512,0 -11.841,5.33 -11.841,11.842 0.296,6.512 5.33,11.841 11.841,11.841"
             style="fill:#005992;fill-opacity:1;fill-rule:nonzero;stroke:none"
             id="path46" /></g><g
           id="g48"
           transform="translate(240.2803,207.6494)"><path
             d="m 0,0 c -49.731,-49.731 -130.25,-49.731 -179.981,0 -49.733,49.732 -49.733,130.251 0,179.982 49.731,49.732 130.25,49.732 179.981,0 C 49.732,130.251 49.732,49.732 0,0"
             style="fill:#ffffff;fill-opacity:1;fill-rule:nonzero;stroke:none"
             id="path50" /></g><g
           id="g52"
           transform="translate(251.8252,363.3584)"><path
             d="m 0,0 c 2.368,-7.993 3.849,-16.281 3.849,-24.866 0,-28.122 -13.913,-52.693 -34.931,-68.382 -36.411,-26.939 -89.695,-26.939 -163.108,-50.027 22.201,-26.643 55.356,-43.516 92.655,-43.516 66.9,0 120.777,54.172 120.777,120.777 C 19.242,-41.443 12.138,-18.946 0,0"
             style="fill:#005992;fill-opacity:1;fill-rule:nonzero;stroke:none"
             id="path54" /></g><g
           id="g56"
           transform="translate(222.8154,394.4404)"><path
             d="m 0,0 c -20.13,15.097 -45.292,24.273 -72.525,24.273 -66.902,0 -120.778,-54.171 -120.778,-121.073 0,-26.938 8.88,-51.804 23.682,-71.637 C -88.511,-144.756 -24.274,-81.11 0,0"
             style="fill:#ed1a38;fill-opacity:1;fill-rule:nonzero;stroke:none"
             id="path58" /></g></g></g></g></svg>
